:SAMPLES-PER-SECOND 30
:FULLY-SPECIFIED
:DEGREES
226
root  52.0011 38.4186 1.29221 10.237 33.7853 8.22282
RightUpLeg  -28.9935 -9.61101 -1.46301
RightLeg  9.26539 -25.7752 4.76761
RightFoot  7.98309 3.20423 -18.3192
RightToes  0.00048216 0.542163 -0.142577
Spine  44.1937 -1.95752 6.88774
Spine1  12.8896 -2.35721 8.62109
HEad  -13.4825 -44.7592 27.3908
LeftShoulder1  10.2359 -18.7073 -39.8117
LeftArm  -8.19419 7.0754 -26.4016
LeftForeArm  22.886 -15.8097 -4.7709
LeftHand  -0.25398 0.0180481 5.50724
RightShoulder  6.52405 12.5454 34.6803
RightArm  18.1998 -0.7734 25.5868
RightForeArm  -26.5564 21.192 6.80114
RightHand  -2.84192 7.78323 -25.0796
LeftUpLeg  -21.2859 25.6016 -14.13
LeftLeg  48.3774 7.33683 9.19211
LeftFoot  -7.75817 0.178492 -4.17199
LeftToes  1.06243e-005 4.65856e-005 -8.18505e-006
227
root  51.0297 38.1397 1.08316 8.98277 36.0253 7.8945
RightUpLeg  -28.5192 -9.4294 -0.847994
RightLeg  8.83749 -28.1569 4.99793
RightFoot  7.9462 3.38021 -19.3621
RightToes  0.00048216 0.542163 -0.142577
Spine  41.9904 -2.07654 6.49439
Spine1  13.2868 -3.12128 9.65112
HEad  -11.5497 -46.4354 26.8629
LeftShoulder1  10.0833 -18.1427 -40.2901
LeftArm  -8.36067 9.73016 -25.8371
LeftForeArm  20.6316 -19.376 -4.03585
LeftHand  -0.25398 0.0180481 5.50724
RightShoulder  6.6045 12.4195 35.4976
RightArm  21.0552 -7.24124 26.7233
RightForeArm  -26.3521 20.5466 7.13758
RightHand  -2.60601 7.20808 -24.0871
LeftUpLeg  -15.8888 25.7715 -13.3928
LeftLeg  47.4017 7.14857 8.67405
LeftFoot  -8.94012 0.171038 -5.59149
LeftToes  1.06243e-005 4.65856e-005 -8.18505e-006
228
root  49.9813 37.8238 0.838617 7.66765 38.3639 7.51363
RightUpLeg  -27.9885 -9.12442 -0.314794
RightLeg  7.87295 -30.3111 5.58474
RightFoot  8.07235 3.52875 -20.0713
RightToes  0.00048216 0.542163 -0.142577
Spine  39.9236 -2.22587 5.60778
Spine1  13.5731 -4.14541 10.8801
HEad  -9.32382 -47.4436 25.7445
LeftShoulder1  9.86961 -17.4318 -40.8247
LeftArm  -10.7151 11.7929 -25.1068
LeftForeArm  19.7864 -22.7962 -3.9043
LeftHand  -0.25398 0.0180481 5.50724
RightShoulder  6.58577 12.1844 35.9914
RightArm  23.1726 -13.2823 28.4026
RightForeArm  -24.6693 19.8767 7.46175
RightHand  -2.2102 6.07209 -22.4911
LeftUpLeg  -10.4678 23.7711 -12.4222
LeftLeg  45.0296 7.61318 8.49287
LeftFoot  -11.3909 0.0609176 -6.97244
LeftToes  1.06243e-005 4.65856e-005 -8.18505e-006
229
root  48.8374 37.5093 0.55004 6.30985 40.5162 7.44044
RightUpLeg  -27.0765 -8.9797 -0.0852038
RightLeg  6.04568 -32.0385 6.87522
RightFoot  8.67009 3.7854 -20.8503
RightToes  0.00048216 0.542163 -0.142577
Spine  38.2739 -2.23259 4.17452
Spine1  13.75 -5.02418 11.7326
HEad  -7.08503 -48.1624 24.2906
LeftShoulder1  9.63858 -16.8931 -40.9349
LeftArm  -13.8965 13.1669 -24.3372
LeftForeArm  20.4594 -25.9627 -4.46779
LeftHand  -0.25398 0.0180481 5.50724
RightShoulder  6.50746 11.794 36.5385
RightArm  23.3826 -18.9733 30.4459
RightForeArm  -20.8519 19.193 7.66547
RightHand  -1.59115 3.95527 -19.8639
LeftUpLeg  -5.46979 20.0035 -11.9699
LeftLeg  41.098 8.64237 8.37008
LeftFoot  -16.5371 -0.258048 -7.88725
LeftToes  1.06243e-005 4.65856e-005 -8.18505e-006
230
root  47.5698 37.1943 0.200937 4.8903 42.0117 7.91706
RightUpLeg  -25.8536 -9.14798 -0.146601
RightLeg  4.03315 -33.1508 8.34933
RightFoot  9.72144 3.96776 -20.7335
RightToes  0.00048216 0.542163 -0.142577
Spine  37.0102 -1.87625 1.94341
Spine1  14.3127 -5.58772 11.992
HEad  -5.07926 -48.3196 23.0237
LeftShoulder1  9.39097 -16.4764 -40.6999
LeftArm  -16.0722 13.5271 -23.3165
LeftForeArm  21.0372 -28.7283 -5.06836
LeftHand  -0.25398 0.0180481 5.50724
RightShoulder  6.48688 11.5187 37.1628
RightArm  21.4247 -23.6376 32.8204
RightForeArm  -14.5947 18.2263 7.84476
RightHand  -0.931213 1.31342 -16.1691
LeftUpLeg  -1.79676 17.019 -12.0733
LeftLeg  37.0825 10.4834 8.7597
LeftFoot  -23.0236 -0.566893 -6.99366
LeftToes  1.06243e-005 4.65856e-005 -8.18505e-006
231
root  46.1932 36.9118 -0.208063 3.74185 42.9113 9.05979
RightUpLeg  -24.5304 -9.9507 -0.659292
RightLeg  2.43588 -32.046 9.53827
RightFoot  11.0364 3.19668 -15.6989
RightToes  0.00048216 0.542163 -0.142577
Spine  36.1598 -1.25748 -1.14926
Spine1  15.1246 -5.98329 11.8609
HEad  -3.26034 -47.7804 22.145
LeftShoulder1  9.12925 -16.034 -40.4433
LeftArm  -17.741 13.1385 -22.0268
LeftForeArm  21.1664 -30.9009 -5.57257
LeftHand  -0.25398 0.0180481 5.50724
RightShoulder  6.55421 11.4113 37.9002
RightArm  18.5576 -26.5398 34.9679
RightForeArm  -6.93757 17.1639 7.9519
RightHand  -0.486971 -0.819382 -12.3368
LeftUpLeg  -0.470892 16.9288 -12.1655
LeftLeg  35.4268 12.2189 9.56558
LeftFoot  -27.3878 -0.404828 -4.01347
LeftToes  1.06243e-005 4.65856e-005 -8.18505e-006
232
root  44.8242 36.691 -0.642348 3.22762 43.6811 10.6185
RightUpLeg  -23.4501 -13.0216 -1.40969
RightLeg  2.0341 -25.708 10.1681
RightFoot  12.0765 0.460794 -1.8273
RightToes  0.00048216 0.542163 -0.142577
Spine  35.6059 -0.75399 -4.56987
Spine1  15.58 -6.42805 11.5153
HEad  -1.33056 -46.975 21.1563
LeftShoulder1  8.91324 -15.6556 -40.2526
LeftArm  -19.3663 12.9019 -21.0616
LeftForeArm  20.8595 -32.3743 -5.95149
LeftHand  -0.25398 0.0180481 5.50724
RightShoulder  6.60033 11.2556 38.6472
RightArm  16.0395 -27.5956 36.1892
RightForeArm  -0.166082 16.4381 7.86983
RightHand  -0.31321 -1.79131 -9.88003
LeftUpLeg  -1.4114 19.1478 -11.849
LeftLeg  36.7964 11.9589 9.80676
LeftFoot  -28.587 0.00893355 -1.04795
LeftToes  1.06243e-005 4.65856e-005 -8.18505e-006
